<mxfile host="app.diagrams.net" modified="2024-06-10T07:14:23.483Z" agent="Mozilla/5.0 (Windows NT 10.0; Win64; x64) AppleWebKit/537.36 (KHTML, like Gecko) Chrome/125.0.0.0 Safari/537.36" version="24.4.15" etag="BBBA_ETNB8vBmlbOHzVj" type="github">
  <diagram name="Page-1" id="UPwxppJGJ0WHOJv08Peg">
    <mxGraphModel>
      <root>
        <mxCell id="0" />
        <mxCell id="1" parent="0" />
      </root>
    </mxGraphModel>
  </diagram>
</mxfile>
